<svg width="20" height="10" viewBox="0 0 20 10" fill="none" xmlns="http://www.w3.org/2000/svg">
<path d="M10 8.29096L1.27803 0.207616C1.20774 0.141065 1.12429 0.0884504 1.03252 0.0528173C0.940736 0.0171843 0.842449 -0.000760078 0.743341 2.47955e-05C0.644233 0.000808716 0.546272 0.0203047 0.455128 0.0573854C0.363983 0.0944653 0.281464 0.148393 0.212347 0.216047C0.143229 0.283702 0.0888849 0.363739 0.0524592 0.45153C0.0160334 0.539319 -0.0017508 0.63312 0.000135823 0.727498C0.00202245 0.821877 0.0235424 0.914963 0.0634503 1.00137C0.103358 1.08777 0.160862 1.16578 0.232633 1.23088L9.4773 9.79778C9.61724 9.92745 9.80477 10 10 10C10.1952 10 10.3828 9.92745 10.5227 9.79778L19.7674 1.23088C19.8391 1.16578 19.8966 1.08777 19.9366 1.00137C19.9765 0.914963 19.998 0.821877 19.9999 0.727498C20.0018 0.63312 19.984 0.539319 19.9475 0.45153C19.9111 0.363739 19.8568 0.283702 19.7877 0.216047C19.7185 0.148393 19.636 0.0944653 19.5449 0.0573854C19.4537 0.0203047 19.3558 0.000808716 19.2567 2.47955e-05C19.1576 -0.000760078 19.0593 0.0171843 18.9675 0.0528173C18.8757 0.0884504 18.7923 0.141065 18.722 0.207616L10 8.29096Z" fill="#7A7A7A"/>
</svg>
