<svg width="226" height="30" viewBox="0 0 226 30" fill="none" xmlns="http://www.w3.org/2000/svg">
<path d="M5.26953 29H0.738281C0.634115 29 0.582031 28.9349 0.582031 28.8047L0.660156 1.36328C0.660156 1.23307 0.71224 1.16797 0.816406 1.16797H5.30859C5.41276 1.16797 5.46484 1.23307 5.46484 1.36328V10.8359L11.7344 1.32422C11.8385 1.22005 11.9362 1.16797 12.0273 1.16797H16.6172C16.7344 1.16797 16.7604 1.22005 16.6953 1.32422L9.78125 12.3594L17.5352 28.8438C17.6003 28.9479 17.5352 29 17.3398 29H12.457C12.3268 29 12.2487 28.9479 12.2227 28.8438L6.8125 17.0859L5.42578 19.2734V28.8047C5.42578 28.9349 5.3737 29 5.26953 29ZM27.6586 29H23.1273C22.9971 29 22.932 28.9349 22.932 28.8047L22.9711 1.32422C22.9711 1.22005 23.0232 1.16797 23.1273 1.16797H27.6195C27.7237 1.16797 27.7758 1.22005 27.7758 1.32422L27.8148 28.8047C27.8148 28.9349 27.7628 29 27.6586 29ZM39.2859 29H35.282C35.0737 29 34.9695 28.9089 34.9695 28.7266L34.9305 1.48047C34.9305 1.27214 35.0346 1.16797 35.243 1.16797H38.8563L45.6141 16.9297L45.4188 1.48047C45.4188 1.27214 45.5359 1.16797 45.7703 1.16797H49.7352C49.8914 1.16797 49.9695 1.27214 49.9695 1.48047L50.0086 28.7656C50.0086 28.9219 49.9435 29 49.8133 29H46.2977L39.3641 14.2734L39.657 28.6875C39.657 28.8958 39.5333 29 39.2859 29ZM64.4875 29.3906C63.0682 29.3906 61.7596 29.026 60.5617 28.2969C59.3768 27.5677 58.4198 26.5977 57.6906 25.3867C56.9745 24.1628 56.6164 22.8216 56.6164 21.3633L56.6555 8.6875C56.6555 7.20312 57.0135 5.86849 57.7297 4.68359C58.4328 3.48568 59.3833 2.52865 60.5812 1.8125C61.7792 1.08333 63.0812 0.71875 64.4875 0.71875C65.9458 0.71875 67.2544 1.07682 68.4133 1.79297C69.5852 2.50911 70.5227 3.47266 71.2258 4.68359C71.9419 5.88151 72.3 7.21615 72.3 8.6875L72.3391 21.3633C72.3391 22.8216 71.9875 24.1562 71.2844 25.3672C70.5682 26.5911 69.6177 27.5677 68.4328 28.2969C67.2479 29.026 65.9328 29.3906 64.4875 29.3906ZM64.4875 24.5664C65.2948 24.5664 65.9979 24.2409 66.5969 23.5898C67.1958 22.9258 67.4953 22.1836 67.4953 21.3633L67.4562 8.6875C67.4562 7.80208 67.1763 7.05339 66.6164 6.44141C66.0565 5.82943 65.3469 5.52344 64.4875 5.52344C63.6672 5.52344 62.9641 5.82292 62.3781 6.42188C61.7922 7.02083 61.4992 7.77604 61.4992 8.6875V21.3633C61.4992 22.2357 61.7922 22.9909 62.3781 23.6289C62.9641 24.2539 63.6672 24.5664 64.4875 24.5664ZM83.6539 29H79.1227C79.0185 29 78.9664 28.9349 78.9664 28.8047L79.0445 1.32422C79.0445 1.22005 79.0966 1.16797 79.2008 1.16797H84.0836C84.1878 1.16797 84.2789 1.22005 84.357 1.32422L88.0094 6.59766L91.6422 1.32422C91.7203 1.22005 91.818 1.16797 91.9352 1.16797H96.8375C96.9547 1.16797 97.0133 1.22005 97.0133 1.32422L97.0914 28.8047C97.0914 28.9349 97.0393 29 96.9352 29H92.4039C92.2997 29 92.2477 28.9349 92.2477 28.8047L92.2086 8.39453L88.0094 14.4883L83.8492 8.39453L83.8102 28.8047C83.8102 28.9349 83.7581 29 83.6539 29ZM111.453 29.3906C110.034 29.3906 108.725 29.026 107.527 28.2969C106.342 27.5677 105.385 26.5977 104.656 25.3867C103.94 24.1628 103.582 22.8216 103.582 21.3633L103.621 8.6875C103.621 7.20312 103.979 5.86849 104.695 4.68359C105.398 3.48568 106.349 2.52865 107.547 1.8125C108.745 1.08333 110.047 0.71875 111.453 0.71875C112.911 0.71875 114.22 1.07682 115.379 1.79297C116.551 2.50911 117.488 3.47266 118.191 4.68359C118.908 5.88151 119.266 7.21615 119.266 8.6875L119.305 21.3633C119.305 22.8216 118.953 24.1562 118.25 25.3672C117.534 26.5911 116.583 27.5677 115.398 28.2969C114.214 29.026 112.898 29.3906 111.453 29.3906ZM111.453 24.5664C112.26 24.5664 112.964 24.2409 113.562 23.5898C114.161 22.9258 114.461 22.1836 114.461 21.3633L114.422 8.6875C114.422 7.80208 114.142 7.05339 113.582 6.44141C113.022 5.82943 112.312 5.52344 111.453 5.52344C110.633 5.52344 109.93 5.82292 109.344 6.42188C108.758 7.02083 108.465 7.77604 108.465 8.6875V21.3633C108.465 22.2357 108.758 22.9909 109.344 23.6289C109.93 24.2539 110.633 24.5664 111.453 24.5664ZM130.287 29H126.284C126.075 29 125.971 28.9089 125.971 28.7266L125.932 1.48047C125.932 1.27214 126.036 1.16797 126.245 1.16797H129.858L136.616 16.9297L136.42 1.48047C136.42 1.27214 136.537 1.16797 136.772 1.16797H140.737C140.893 1.16797 140.971 1.27214 140.971 1.48047L141.01 28.7656C141.01 28.9219 140.945 29 140.815 29H137.299L130.366 14.2734L130.659 28.6875C130.659 28.8958 130.535 29 130.287 29ZM154.884 29.3906C153.464 29.3906 152.156 29.026 150.958 28.2969C149.773 27.5677 148.822 26.5977 148.106 25.3867C147.403 24.1628 147.052 22.8216 147.052 21.3633V19.5273C147.052 19.3841 147.117 19.3125 147.247 19.3125H151.739C151.843 19.3125 151.895 19.3841 151.895 19.5273V21.3633C151.895 22.2357 152.188 22.9909 152.774 23.6289C153.36 24.2539 154.063 24.5664 154.884 24.5664C155.717 24.5664 156.427 24.2474 157.012 23.6094C157.598 22.9583 157.891 22.2096 157.891 21.3633C157.891 20.3867 157.253 19.5339 155.977 18.8047C155.769 18.6745 155.496 18.5182 155.157 18.3359C154.832 18.1406 154.441 17.9193 153.985 17.6719C153.529 17.4245 153.087 17.1836 152.657 16.9492C152.227 16.7018 151.811 16.4674 151.407 16.2461C149.949 15.3867 148.861 14.3125 148.145 13.0234C147.442 11.7214 147.091 10.263 147.091 8.64844C147.091 7.16406 147.455 5.82292 148.184 4.625C148.914 3.4401 149.864 2.5026 151.036 1.8125C152.221 1.10938 153.503 0.757812 154.884 0.757812C156.303 0.757812 157.605 1.10938 158.79 1.8125C159.975 2.52865 160.919 3.47917 161.622 4.66406C162.338 5.84896 162.696 7.17708 162.696 8.64844V11.9297C162.696 12.0339 162.644 12.0859 162.54 12.0859H158.048C157.943 12.0859 157.891 12.0339 157.891 11.9297L157.852 8.64844C157.852 7.71094 157.559 6.94922 156.973 6.36328C156.387 5.77734 155.691 5.48438 154.884 5.48438C154.063 5.48438 153.36 5.79688 152.774 6.42188C152.188 7.04688 151.895 7.78906 151.895 8.64844C151.895 9.52083 152.078 10.25 152.442 10.8359C152.82 11.4219 153.503 11.9818 154.493 12.5156C154.597 12.5677 154.838 12.6979 155.216 12.9062C155.593 13.1146 156.01 13.349 156.466 13.6094C156.934 13.8568 157.358 14.0846 157.735 14.293C158.113 14.4883 158.341 14.6055 158.419 14.6445C159.747 15.3867 160.795 16.2982 161.563 17.3789C162.345 18.4596 162.735 19.7878 162.735 21.3633C162.735 22.8867 162.384 24.2539 161.68 25.4648C160.964 26.6758 160.014 27.6328 158.829 28.3359C157.644 29.0391 156.329 29.3906 154.884 29.3906ZM177.644 29H173.132C173.015 29 172.956 28.9349 172.956 28.8047V5.99219H167.761C167.631 5.99219 167.566 5.92708 167.566 5.79688L167.605 1.32422C167.605 1.22005 167.657 1.16797 167.761 1.16797H182.956C183.099 1.16797 183.171 1.22005 183.171 1.32422V5.79688C183.171 5.92708 183.119 5.99219 183.015 5.99219H177.761L177.8 28.8047C177.8 28.9349 177.748 29 177.644 29ZM201.81 29H188.88C188.776 29 188.724 28.9349 188.724 28.8047L188.763 1.32422C188.763 1.22005 188.815 1.16797 188.92 1.16797H201.771C201.875 1.16797 201.927 1.23307 201.927 1.36328V5.83594C201.927 5.9401 201.875 5.99219 201.771 5.99219H193.568V12.2422H201.771C201.875 12.2422 201.927 12.2943 201.927 12.3984L201.966 16.9297C201.966 17.0339 201.914 17.0859 201.81 17.0859H193.568V24.0781H201.81C201.914 24.0781 201.966 24.1432 201.966 24.2734V28.8438C201.966 28.9479 201.914 29 201.81 29ZM213.809 29H209.277C209.173 29 209.121 28.9349 209.121 28.8047L209.199 1.32422C209.199 1.22005 209.251 1.16797 209.355 1.16797H217.441C218.887 1.16797 220.215 1.51953 221.426 2.22266C222.637 2.92578 223.6 3.86979 224.316 5.05469C225.046 6.23958 225.41 7.58073 225.41 9.07812C225.41 10.0547 225.26 10.9401 224.961 11.7344C224.661 12.5286 224.31 13.1992 223.906 13.7461C223.516 14.293 223.158 14.6966 222.832 14.957C224.277 16.5586 225 18.4401 225 20.6016L225.039 28.8047C225.039 28.9349 224.974 29 224.844 29H220.312C220.208 29 220.156 28.9609 220.156 28.8828V20.6016C220.156 19.638 219.818 18.8047 219.141 18.1016C218.464 17.3984 217.63 17.0469 216.641 17.0469H214.004L213.965 28.8047C213.965 28.9349 213.913 29 213.809 29ZM217.441 5.95312H214.004V12.2422H217.441C218.262 12.2422 218.991 11.9362 219.629 11.3242C220.28 10.7122 220.605 9.96354 220.605 9.07812C220.605 8.23177 220.293 7.5026 219.668 6.89062C219.043 6.26562 218.301 5.95312 217.441 5.95312Z" fill="#FF3D81"/>
</svg>
